<mxfile host="app.diagrams.net" modified="2022-05-19T02:58:15.788Z" agent="5.0 (Windows NT 10.0; Win64; x64) AppleWebKit/537.36 (KHTML, like Gecko) Chrome/101.0.4951.67 Safari/537.36" etag="F9tTtyIOU2rsZ7L-LoPm" version="18.0.3" type="github">
  <diagram id="HJzAfzv13D2bc7kzG2u6" name="Page-1">
    <mxGraphModel dx="1865" dy="529" grid="1" gridSize="10" guides="1" tooltips="1" connect="1" arrows="1" fold="1" page="1" pageScale="1" pageWidth="827" pageHeight="1169" math="0" shadow="0">
      <root>
        <mxCell id="0" />
        <mxCell id="1" parent="0" />
        <mxCell id="3z_xUzvi2a_4fJgc66t--7" style="rounded=0;orthogonalLoop=1;jettySize=auto;html=1;exitX=1;exitY=1;exitDx=0;exitDy=0;entryX=0;entryY=0;entryDx=0;entryDy=0;" edge="1" parent="1" source="3z_xUzvi2a_4fJgc66t--1" target="3z_xUzvi2a_4fJgc66t--2">
          <mxGeometry relative="1" as="geometry" />
        </mxCell>
        <mxCell id="3z_xUzvi2a_4fJgc66t--13" style="edgeStyle=none;rounded=0;orthogonalLoop=1;jettySize=auto;html=1;exitX=0.5;exitY=1;exitDx=0;exitDy=0;entryX=0.5;entryY=0;entryDx=0;entryDy=0;" edge="1" parent="1" source="3z_xUzvi2a_4fJgc66t--1" target="3z_xUzvi2a_4fJgc66t--4">
          <mxGeometry relative="1" as="geometry" />
        </mxCell>
        <mxCell id="3z_xUzvi2a_4fJgc66t--1" value="v&lt;sub&gt;0&lt;/sub&gt;" style="ellipse;whiteSpace=wrap;html=1;fillColor=#dae8fc;strokeColor=#6c8ebf;" vertex="1" parent="1">
          <mxGeometry x="28" y="69" width="40" height="40" as="geometry" />
        </mxCell>
        <mxCell id="3z_xUzvi2a_4fJgc66t--8" style="edgeStyle=none;rounded=0;orthogonalLoop=1;jettySize=auto;html=1;exitX=0.5;exitY=1;exitDx=0;exitDy=0;entryX=0.5;entryY=0;entryDx=0;entryDy=0;" edge="1" parent="1" source="3z_xUzvi2a_4fJgc66t--2" target="3z_xUzvi2a_4fJgc66t--3">
          <mxGeometry relative="1" as="geometry" />
        </mxCell>
        <mxCell id="3z_xUzvi2a_4fJgc66t--2" value="v&lt;span style=&quot;font-size: 10px;&quot;&gt;&lt;sub&gt;1&lt;/sub&gt;&lt;/span&gt;" style="ellipse;whiteSpace=wrap;html=1;fillColor=#dae8fc;strokeColor=#6c8ebf;" vertex="1" parent="1">
          <mxGeometry x="108" y="129" width="40" height="40" as="geometry" />
        </mxCell>
        <mxCell id="3z_xUzvi2a_4fJgc66t--3" value="v&lt;span style=&quot;font-size: 8.33333px;&quot;&gt;&lt;sub&gt;2&lt;/sub&gt;&lt;/span&gt;" style="ellipse;whiteSpace=wrap;html=1;fillColor=#dae8fc;strokeColor=#6c8ebf;" vertex="1" parent="1">
          <mxGeometry x="108" y="199" width="40" height="40" as="geometry" />
        </mxCell>
        <mxCell id="3z_xUzvi2a_4fJgc66t--9" style="edgeStyle=none;rounded=0;orthogonalLoop=1;jettySize=auto;html=1;exitX=1;exitY=0;exitDx=0;exitDy=0;entryX=0;entryY=1;entryDx=0;entryDy=0;" edge="1" parent="1" source="3z_xUzvi2a_4fJgc66t--4" target="3z_xUzvi2a_4fJgc66t--3">
          <mxGeometry relative="1" as="geometry" />
        </mxCell>
        <mxCell id="3z_xUzvi2a_4fJgc66t--10" style="edgeStyle=none;rounded=0;orthogonalLoop=1;jettySize=auto;html=1;exitX=0;exitY=0;exitDx=0;exitDy=0;entryX=1;entryY=1;entryDx=0;entryDy=0;" edge="1" parent="1" source="3z_xUzvi2a_4fJgc66t--4" target="3z_xUzvi2a_4fJgc66t--5">
          <mxGeometry relative="1" as="geometry" />
        </mxCell>
        <mxCell id="3z_xUzvi2a_4fJgc66t--4" value="v&lt;span style=&quot;font-size: 6.94444px;&quot;&gt;&lt;sub&gt;3&lt;/sub&gt;&lt;/span&gt;" style="ellipse;whiteSpace=wrap;html=1;fillColor=#dae8fc;strokeColor=#6c8ebf;" vertex="1" parent="1">
          <mxGeometry x="28" y="259" width="40" height="40" as="geometry" />
        </mxCell>
        <mxCell id="3z_xUzvi2a_4fJgc66t--11" style="edgeStyle=none;rounded=0;orthogonalLoop=1;jettySize=auto;html=1;exitX=0.5;exitY=0;exitDx=0;exitDy=0;entryX=0.5;entryY=1;entryDx=0;entryDy=0;" edge="1" parent="1" source="3z_xUzvi2a_4fJgc66t--5" target="3z_xUzvi2a_4fJgc66t--6">
          <mxGeometry relative="1" as="geometry" />
        </mxCell>
        <mxCell id="3z_xUzvi2a_4fJgc66t--5" value="v&lt;span style=&quot;font-size: 6.94444px;&quot;&gt;&lt;sub&gt;4&lt;/sub&gt;&lt;/span&gt;" style="ellipse;whiteSpace=wrap;html=1;fillColor=#dae8fc;strokeColor=#6c8ebf;" vertex="1" parent="1">
          <mxGeometry x="-62" y="199" width="40" height="40" as="geometry" />
        </mxCell>
        <mxCell id="3z_xUzvi2a_4fJgc66t--12" style="edgeStyle=none;rounded=0;orthogonalLoop=1;jettySize=auto;html=1;exitX=1;exitY=0.5;exitDx=0;exitDy=0;" edge="1" parent="1" source="3z_xUzvi2a_4fJgc66t--6" target="3z_xUzvi2a_4fJgc66t--3">
          <mxGeometry relative="1" as="geometry" />
        </mxCell>
        <mxCell id="3z_xUzvi2a_4fJgc66t--14" style="edgeStyle=none;rounded=0;orthogonalLoop=1;jettySize=auto;html=1;exitX=1;exitY=0.5;exitDx=0;exitDy=0;entryX=0;entryY=0.5;entryDx=0;entryDy=0;" edge="1" parent="1" source="3z_xUzvi2a_4fJgc66t--6" target="3z_xUzvi2a_4fJgc66t--2">
          <mxGeometry relative="1" as="geometry" />
        </mxCell>
        <mxCell id="3z_xUzvi2a_4fJgc66t--6" value="v&lt;span style=&quot;font-size: 5.78703px;&quot;&gt;&lt;sub&gt;5&lt;/sub&gt;&lt;/span&gt;" style="ellipse;whiteSpace=wrap;html=1;fillColor=#dae8fc;strokeColor=#6c8ebf;" vertex="1" parent="1">
          <mxGeometry x="-62" y="119" width="40" height="40" as="geometry" />
        </mxCell>
        <mxCell id="3z_xUzvi2a_4fJgc66t--15" value="" style="rounded=1;whiteSpace=wrap;html=1;" vertex="1" parent="1">
          <mxGeometry x="199" y="40" width="350" height="120" as="geometry" />
        </mxCell>
        <mxCell id="3z_xUzvi2a_4fJgc66t--16" value="" style="rounded=1;whiteSpace=wrap;html=1;" vertex="1" parent="1">
          <mxGeometry x="198" y="220" width="351" height="120" as="geometry" />
        </mxCell>
        <mxCell id="3z_xUzvi2a_4fJgc66t--17" value="&lt;font style=&quot;font-size: 18px;&quot;&gt;Partition&lt;sub&gt;0&lt;/sub&gt;&lt;/font&gt;" style="text;html=1;strokeColor=none;fillColor=none;align=center;verticalAlign=middle;whiteSpace=wrap;rounded=0;" vertex="1" parent="1">
          <mxGeometry x="345" y="10" width="60" height="30" as="geometry" />
        </mxCell>
        <mxCell id="3z_xUzvi2a_4fJgc66t--21" value="&lt;font style=&quot;font-size: 14px;&quot;&gt;&amp;nbsp;stream&lt;sub style=&quot;&quot;&gt;0&lt;/sub&gt;&lt;/font&gt;" style="text;html=1;strokeColor=none;fillColor=none;align=center;verticalAlign=middle;whiteSpace=wrap;rounded=0;fontSize=18;" vertex="1" parent="1">
          <mxGeometry x="231" y="50" width="60" height="20" as="geometry" />
        </mxCell>
        <mxCell id="3z_xUzvi2a_4fJgc66t--24" value="a" style="text;html=1;strokeColor=none;fillColor=none;align=center;verticalAlign=middle;whiteSpace=wrap;rounded=0;fontSize=14;" vertex="1" parent="1">
          <mxGeometry x="68" y="99" width="60" height="30" as="geometry" />
        </mxCell>
        <mxCell id="3z_xUzvi2a_4fJgc66t--25" value="a" style="text;html=1;strokeColor=none;fillColor=none;align=center;verticalAlign=middle;whiteSpace=wrap;rounded=0;fontSize=14;" vertex="1" parent="1">
          <mxGeometry x="90" y="130" width="60" height="30" as="geometry" />
        </mxCell>
        <mxCell id="3z_xUzvi2a_4fJgc66t--26" value="a" style="text;html=1;strokeColor=none;fillColor=none;align=center;verticalAlign=middle;whiteSpace=wrap;rounded=0;fontSize=14;" vertex="1" parent="1">
          <mxGeometry x="-22" y="229" width="60" height="30" as="geometry" />
        </mxCell>
        <mxCell id="3z_xUzvi2a_4fJgc66t--27" value="b" style="text;html=1;strokeColor=none;fillColor=none;align=center;verticalAlign=middle;whiteSpace=wrap;rounded=0;fontSize=14;" vertex="1" parent="1">
          <mxGeometry x="28" y="199" width="60" height="30" as="geometry" />
        </mxCell>
        <mxCell id="3z_xUzvi2a_4fJgc66t--28" value="b" style="text;html=1;strokeColor=none;fillColor=none;align=center;verticalAlign=middle;whiteSpace=wrap;rounded=0;fontSize=14;" vertex="1" parent="1">
          <mxGeometry x="-62" y="169" width="60" height="30" as="geometry" />
        </mxCell>
        <mxCell id="3z_xUzvi2a_4fJgc66t--29" value="b" style="text;html=1;strokeColor=none;fillColor=none;align=center;verticalAlign=middle;whiteSpace=wrap;rounded=0;fontSize=14;" vertex="1" parent="1">
          <mxGeometry x="48" y="139" width="60" height="30" as="geometry" />
        </mxCell>
        <mxCell id="3z_xUzvi2a_4fJgc66t--30" value="c" style="text;html=1;strokeColor=none;fillColor=none;align=center;verticalAlign=middle;whiteSpace=wrap;rounded=0;fontSize=14;" vertex="1" parent="1">
          <mxGeometry x="68" y="239" width="60" height="30" as="geometry" />
        </mxCell>
        <mxCell id="3z_xUzvi2a_4fJgc66t--32" value="c" style="text;html=1;strokeColor=none;fillColor=none;align=center;verticalAlign=middle;whiteSpace=wrap;rounded=0;fontSize=14;" vertex="1" parent="1">
          <mxGeometry x="-22" y="149" width="60" height="30" as="geometry" />
        </mxCell>
        <mxCell id="3z_xUzvi2a_4fJgc66t--42" value="" style="group" vertex="1" connectable="0" parent="1">
          <mxGeometry x="213" y="81" width="96" height="60" as="geometry" />
        </mxCell>
        <mxCell id="3z_xUzvi2a_4fJgc66t--22" value="v&lt;sub&gt;0&lt;/sub&gt;" style="rounded=0;whiteSpace=wrap;html=1;fontSize=14;" vertex="1" parent="3z_xUzvi2a_4fJgc66t--42">
          <mxGeometry y="20" width="26" height="20" as="geometry" />
        </mxCell>
        <mxCell id="3z_xUzvi2a_4fJgc66t--23" value="v&lt;span style=&quot;font-size: 11.6667px;&quot;&gt;&lt;sub&gt;1&lt;/sub&gt;&lt;/span&gt;" style="rounded=0;whiteSpace=wrap;html=1;fontSize=14;" vertex="1" parent="3z_xUzvi2a_4fJgc66t--42">
          <mxGeometry x="26" y="20" width="30" height="20" as="geometry" />
        </mxCell>
        <mxCell id="3z_xUzvi2a_4fJgc66t--33" value="a" style="rounded=0;whiteSpace=wrap;html=1;fontSize=14;" vertex="1" parent="3z_xUzvi2a_4fJgc66t--42">
          <mxGeometry x="56" y="20" width="40" height="20" as="geometry" />
        </mxCell>
        <mxCell id="3z_xUzvi2a_4fJgc66t--34" value="v&lt;sub&gt;0&lt;/sub&gt;" style="rounded=0;whiteSpace=wrap;html=1;fontSize=14;" vertex="1" parent="3z_xUzvi2a_4fJgc66t--42">
          <mxGeometry y="40" width="26" height="20" as="geometry" />
        </mxCell>
        <mxCell id="3z_xUzvi2a_4fJgc66t--35" value="v&lt;font size=&quot;1&quot;&gt;&lt;sub&gt;3&lt;/sub&gt;&lt;/font&gt;" style="rounded=0;whiteSpace=wrap;html=1;fontSize=14;" vertex="1" parent="3z_xUzvi2a_4fJgc66t--42">
          <mxGeometry x="26" y="40" width="30" height="20" as="geometry" />
        </mxCell>
        <mxCell id="3z_xUzvi2a_4fJgc66t--36" value="b" style="rounded=0;whiteSpace=wrap;html=1;fontSize=14;" vertex="1" parent="3z_xUzvi2a_4fJgc66t--42">
          <mxGeometry x="56" y="40" width="40" height="20" as="geometry" />
        </mxCell>
        <mxCell id="3z_xUzvi2a_4fJgc66t--38" value="src" style="rounded=0;whiteSpace=wrap;html=1;fontSize=14;fillColor=#d5e8d4;strokeColor=#000000;gradientColor=none;" vertex="1" parent="3z_xUzvi2a_4fJgc66t--42">
          <mxGeometry width="26" height="20" as="geometry" />
        </mxCell>
        <mxCell id="3z_xUzvi2a_4fJgc66t--39" value="dst" style="rounded=0;whiteSpace=wrap;html=1;fontSize=14;fillColor=#d5e8d4;strokeColor=#000000;" vertex="1" parent="3z_xUzvi2a_4fJgc66t--42">
          <mxGeometry x="26" width="30" height="20" as="geometry" />
        </mxCell>
        <mxCell id="3z_xUzvi2a_4fJgc66t--40" value="label" style="rounded=0;whiteSpace=wrap;html=1;fontSize=14;fillColor=#d5e8d4;strokeColor=#000000;gradientColor=none;" vertex="1" parent="3z_xUzvi2a_4fJgc66t--42">
          <mxGeometry x="56" width="40" height="20" as="geometry" />
        </mxCell>
        <mxCell id="3z_xUzvi2a_4fJgc66t--45" value="&lt;font style=&quot;font-size: 14px;&quot;&gt;&amp;nbsp;stream&lt;/font&gt;&lt;font style=&quot;font-size: 11.6667px;&quot;&gt;&lt;sub&gt;1&lt;/sub&gt;&lt;/font&gt;" style="text;html=1;strokeColor=none;fillColor=none;align=center;verticalAlign=middle;whiteSpace=wrap;rounded=0;fontSize=18;" vertex="1" parent="1">
          <mxGeometry x="344" y="50" width="60" height="20" as="geometry" />
        </mxCell>
        <mxCell id="3z_xUzvi2a_4fJgc66t--57" value="" style="group" vertex="1" connectable="0" parent="1">
          <mxGeometry x="327" y="81" width="96" height="60" as="geometry" />
        </mxCell>
        <mxCell id="3z_xUzvi2a_4fJgc66t--58" value="v&lt;span style=&quot;font-size: 11.6667px;&quot;&gt;&lt;sub&gt;1&lt;/sub&gt;&lt;/span&gt;" style="rounded=0;whiteSpace=wrap;html=1;fontSize=14;" vertex="1" parent="3z_xUzvi2a_4fJgc66t--57">
          <mxGeometry y="20" width="26" height="20" as="geometry" />
        </mxCell>
        <mxCell id="3z_xUzvi2a_4fJgc66t--59" value="v&lt;font size=&quot;1&quot;&gt;&lt;sub&gt;2&lt;/sub&gt;&lt;/font&gt;" style="rounded=0;whiteSpace=wrap;html=1;fontSize=14;" vertex="1" parent="3z_xUzvi2a_4fJgc66t--57">
          <mxGeometry x="26" y="20" width="30" height="20" as="geometry" />
        </mxCell>
        <mxCell id="3z_xUzvi2a_4fJgc66t--60" value="a" style="rounded=0;whiteSpace=wrap;html=1;fontSize=14;" vertex="1" parent="3z_xUzvi2a_4fJgc66t--57">
          <mxGeometry x="56" y="20" width="40" height="20" as="geometry" />
        </mxCell>
        <mxCell id="3z_xUzvi2a_4fJgc66t--64" value="src" style="rounded=0;whiteSpace=wrap;html=1;fontSize=14;fillColor=#d5e8d4;strokeColor=#000000;gradientColor=none;" vertex="1" parent="3z_xUzvi2a_4fJgc66t--57">
          <mxGeometry width="26" height="20" as="geometry" />
        </mxCell>
        <mxCell id="3z_xUzvi2a_4fJgc66t--65" value="dst" style="rounded=0;whiteSpace=wrap;html=1;fontSize=14;fillColor=#d5e8d4;strokeColor=#000000;" vertex="1" parent="3z_xUzvi2a_4fJgc66t--57">
          <mxGeometry x="26" width="30" height="20" as="geometry" />
        </mxCell>
        <mxCell id="3z_xUzvi2a_4fJgc66t--66" value="label" style="rounded=0;whiteSpace=wrap;html=1;fontSize=14;fillColor=#d5e8d4;strokeColor=#000000;gradientColor=none;" vertex="1" parent="3z_xUzvi2a_4fJgc66t--57">
          <mxGeometry x="56" width="40" height="20" as="geometry" />
        </mxCell>
        <mxCell id="3z_xUzvi2a_4fJgc66t--67" value="&lt;font style=&quot;font-size: 14px;&quot;&gt;&amp;nbsp;stream&lt;/font&gt;&lt;font size=&quot;1&quot; style=&quot;&quot;&gt;&lt;sub&gt;2&lt;/sub&gt;&lt;/font&gt;" style="text;html=1;strokeColor=none;fillColor=none;align=center;verticalAlign=middle;whiteSpace=wrap;rounded=0;fontSize=18;" vertex="1" parent="1">
          <mxGeometry x="459" y="50" width="60" height="20" as="geometry" />
        </mxCell>
        <mxCell id="3z_xUzvi2a_4fJgc66t--68" value="" style="group" vertex="1" connectable="0" parent="1">
          <mxGeometry x="442" y="81" width="96" height="60" as="geometry" />
        </mxCell>
        <mxCell id="3z_xUzvi2a_4fJgc66t--72" value="src" style="rounded=0;whiteSpace=wrap;html=1;fontSize=14;fillColor=#d5e8d4;strokeColor=#000000;gradientColor=none;" vertex="1" parent="3z_xUzvi2a_4fJgc66t--68">
          <mxGeometry width="30" height="20" as="geometry" />
        </mxCell>
        <mxCell id="3z_xUzvi2a_4fJgc66t--73" value="dst" style="rounded=0;whiteSpace=wrap;html=1;fontSize=14;fillColor=#d5e8d4;strokeColor=#000000;" vertex="1" parent="3z_xUzvi2a_4fJgc66t--68">
          <mxGeometry x="26" width="30" height="20" as="geometry" />
        </mxCell>
        <mxCell id="3z_xUzvi2a_4fJgc66t--74" value="label" style="rounded=0;whiteSpace=wrap;html=1;fontSize=14;fillColor=#d5e8d4;strokeColor=#000000;gradientColor=none;" vertex="1" parent="3z_xUzvi2a_4fJgc66t--68">
          <mxGeometry x="56" width="40" height="20" as="geometry" />
        </mxCell>
        <mxCell id="3z_xUzvi2a_4fJgc66t--75" value="&lt;font style=&quot;font-size: 18px;&quot;&gt;Partition&lt;/font&gt;&lt;font style=&quot;font-size: 15px;&quot;&gt;&lt;sub&gt;1&lt;/sub&gt;&lt;/font&gt;" style="text;html=1;strokeColor=none;fillColor=none;align=center;verticalAlign=middle;whiteSpace=wrap;rounded=0;" vertex="1" parent="1">
          <mxGeometry x="340" y="190" width="60" height="30" as="geometry" />
        </mxCell>
        <mxCell id="3z_xUzvi2a_4fJgc66t--76" value="&lt;font style=&quot;font-size: 14px;&quot;&gt;&amp;nbsp;stream&lt;/font&gt;&lt;font style=&quot;font-size: 11.6667px;&quot;&gt;&lt;sub&gt;3&lt;/sub&gt;&lt;/font&gt;" style="text;html=1;strokeColor=none;fillColor=none;align=center;verticalAlign=middle;whiteSpace=wrap;rounded=0;fontSize=18;" vertex="1" parent="1">
          <mxGeometry x="229" y="228" width="60" height="20" as="geometry" />
        </mxCell>
        <mxCell id="3z_xUzvi2a_4fJgc66t--77" value="" style="group" vertex="1" connectable="0" parent="1">
          <mxGeometry x="211" y="259" width="96" height="60" as="geometry" />
        </mxCell>
        <mxCell id="3z_xUzvi2a_4fJgc66t--78" value="v&lt;span style=&quot;font-size: 11.6667px;&quot;&gt;&lt;sub&gt;3&lt;/sub&gt;&lt;/span&gt;" style="rounded=0;whiteSpace=wrap;html=1;fontSize=14;" vertex="1" parent="3z_xUzvi2a_4fJgc66t--77">
          <mxGeometry y="20" width="26" height="20" as="geometry" />
        </mxCell>
        <mxCell id="3z_xUzvi2a_4fJgc66t--79" value="v&lt;font size=&quot;1&quot;&gt;&lt;sub&gt;2&lt;/sub&gt;&lt;/font&gt;" style="rounded=0;whiteSpace=wrap;html=1;fontSize=14;" vertex="1" parent="3z_xUzvi2a_4fJgc66t--77">
          <mxGeometry x="26" y="20" width="30" height="20" as="geometry" />
        </mxCell>
        <mxCell id="3z_xUzvi2a_4fJgc66t--80" value="c" style="rounded=0;whiteSpace=wrap;html=1;fontSize=14;" vertex="1" parent="3z_xUzvi2a_4fJgc66t--77">
          <mxGeometry x="56" y="20" width="40" height="20" as="geometry" />
        </mxCell>
        <mxCell id="3z_xUzvi2a_4fJgc66t--81" value="v&lt;span style=&quot;font-size: 11.6667px;&quot;&gt;&lt;sub&gt;3&lt;/sub&gt;&lt;/span&gt;" style="rounded=0;whiteSpace=wrap;html=1;fontSize=14;" vertex="1" parent="3z_xUzvi2a_4fJgc66t--77">
          <mxGeometry y="40" width="26" height="20" as="geometry" />
        </mxCell>
        <mxCell id="3z_xUzvi2a_4fJgc66t--82" value="v&lt;span style=&quot;font-size: 8.33333px;&quot;&gt;&lt;sub&gt;4&lt;/sub&gt;&lt;/span&gt;" style="rounded=0;whiteSpace=wrap;html=1;fontSize=14;" vertex="1" parent="3z_xUzvi2a_4fJgc66t--77">
          <mxGeometry x="26" y="40" width="30" height="20" as="geometry" />
        </mxCell>
        <mxCell id="3z_xUzvi2a_4fJgc66t--83" value="a" style="rounded=0;whiteSpace=wrap;html=1;fontSize=14;" vertex="1" parent="3z_xUzvi2a_4fJgc66t--77">
          <mxGeometry x="56" y="40" width="40" height="20" as="geometry" />
        </mxCell>
        <mxCell id="3z_xUzvi2a_4fJgc66t--84" value="src" style="rounded=0;whiteSpace=wrap;html=1;fontSize=14;fillColor=#d5e8d4;strokeColor=#000000;gradientColor=none;" vertex="1" parent="3z_xUzvi2a_4fJgc66t--77">
          <mxGeometry width="26" height="20" as="geometry" />
        </mxCell>
        <mxCell id="3z_xUzvi2a_4fJgc66t--85" value="dst" style="rounded=0;whiteSpace=wrap;html=1;fontSize=14;fillColor=#d5e8d4;strokeColor=#000000;" vertex="1" parent="3z_xUzvi2a_4fJgc66t--77">
          <mxGeometry x="26" width="30" height="20" as="geometry" />
        </mxCell>
        <mxCell id="3z_xUzvi2a_4fJgc66t--86" value="label" style="rounded=0;whiteSpace=wrap;html=1;fontSize=14;fillColor=#d5e8d4;strokeColor=#000000;gradientColor=none;" vertex="1" parent="3z_xUzvi2a_4fJgc66t--77">
          <mxGeometry x="56" width="40" height="20" as="geometry" />
        </mxCell>
        <mxCell id="3z_xUzvi2a_4fJgc66t--87" value="&lt;font style=&quot;font-size: 14px;&quot;&gt;&amp;nbsp;stream&lt;/font&gt;&lt;font size=&quot;1&quot; style=&quot;&quot;&gt;&lt;sub&gt;4&lt;/sub&gt;&lt;/font&gt;" style="text;html=1;strokeColor=none;fillColor=none;align=center;verticalAlign=middle;whiteSpace=wrap;rounded=0;fontSize=18;" vertex="1" parent="1">
          <mxGeometry x="343" y="228" width="60" height="20" as="geometry" />
        </mxCell>
        <mxCell id="3z_xUzvi2a_4fJgc66t--88" value="" style="group" vertex="1" connectable="0" parent="1">
          <mxGeometry x="325" y="259" width="96" height="60" as="geometry" />
        </mxCell>
        <mxCell id="3z_xUzvi2a_4fJgc66t--89" value="v&lt;font size=&quot;1&quot;&gt;&lt;sub&gt;4&lt;/sub&gt;&lt;/font&gt;" style="rounded=0;whiteSpace=wrap;html=1;fontSize=14;" vertex="1" parent="3z_xUzvi2a_4fJgc66t--88">
          <mxGeometry y="20" width="26" height="20" as="geometry" />
        </mxCell>
        <mxCell id="3z_xUzvi2a_4fJgc66t--90" value="v&lt;span style=&quot;font-size: 8.33333px;&quot;&gt;&lt;sub&gt;5&lt;/sub&gt;&lt;/span&gt;" style="rounded=0;whiteSpace=wrap;html=1;fontSize=14;" vertex="1" parent="3z_xUzvi2a_4fJgc66t--88">
          <mxGeometry x="26" y="20" width="30" height="20" as="geometry" />
        </mxCell>
        <mxCell id="3z_xUzvi2a_4fJgc66t--91" value="b" style="rounded=0;whiteSpace=wrap;html=1;fontSize=14;" vertex="1" parent="3z_xUzvi2a_4fJgc66t--88">
          <mxGeometry x="56" y="20" width="40" height="20" as="geometry" />
        </mxCell>
        <mxCell id="3z_xUzvi2a_4fJgc66t--95" value="src" style="rounded=0;whiteSpace=wrap;html=1;fontSize=14;fillColor=#d5e8d4;strokeColor=#000000;gradientColor=none;" vertex="1" parent="3z_xUzvi2a_4fJgc66t--88">
          <mxGeometry width="26" height="20" as="geometry" />
        </mxCell>
        <mxCell id="3z_xUzvi2a_4fJgc66t--96" value="dst" style="rounded=0;whiteSpace=wrap;html=1;fontSize=14;fillColor=#d5e8d4;strokeColor=#000000;" vertex="1" parent="3z_xUzvi2a_4fJgc66t--88">
          <mxGeometry x="26" width="30" height="20" as="geometry" />
        </mxCell>
        <mxCell id="3z_xUzvi2a_4fJgc66t--97" value="label" style="rounded=0;whiteSpace=wrap;html=1;fontSize=14;fillColor=#d5e8d4;strokeColor=#000000;gradientColor=none;" vertex="1" parent="3z_xUzvi2a_4fJgc66t--88">
          <mxGeometry x="56" width="40" height="20" as="geometry" />
        </mxCell>
        <mxCell id="3z_xUzvi2a_4fJgc66t--98" value="&lt;font style=&quot;font-size: 14px;&quot;&gt;&amp;nbsp;stream&lt;/font&gt;&lt;font style=&quot;font-size: 8.33333px;&quot;&gt;&lt;sub&gt;5&lt;/sub&gt;&lt;/font&gt;" style="text;html=1;strokeColor=none;fillColor=none;align=center;verticalAlign=middle;whiteSpace=wrap;rounded=0;fontSize=18;" vertex="1" parent="1">
          <mxGeometry x="460" y="229" width="60" height="20" as="geometry" />
        </mxCell>
        <mxCell id="3z_xUzvi2a_4fJgc66t--108" value="" style="group" vertex="1" connectable="0" parent="1">
          <mxGeometry x="440" y="259" width="96" height="60" as="geometry" />
        </mxCell>
        <mxCell id="3z_xUzvi2a_4fJgc66t--109" value="v&lt;font size=&quot;1&quot;&gt;&lt;sub&gt;5&lt;/sub&gt;&lt;/font&gt;" style="rounded=0;whiteSpace=wrap;html=1;fontSize=14;" vertex="1" parent="3z_xUzvi2a_4fJgc66t--108">
          <mxGeometry y="20" width="26" height="20" as="geometry" />
        </mxCell>
        <mxCell id="3z_xUzvi2a_4fJgc66t--110" value="v&lt;span style=&quot;font-size: 8.33333px;&quot;&gt;&lt;sub&gt;1&lt;/sub&gt;&lt;/span&gt;" style="rounded=0;whiteSpace=wrap;html=1;fontSize=14;" vertex="1" parent="3z_xUzvi2a_4fJgc66t--108">
          <mxGeometry x="26" y="20" width="30" height="20" as="geometry" />
        </mxCell>
        <mxCell id="3z_xUzvi2a_4fJgc66t--111" value="b" style="rounded=0;whiteSpace=wrap;html=1;fontSize=14;" vertex="1" parent="3z_xUzvi2a_4fJgc66t--108">
          <mxGeometry x="56" y="20" width="40" height="20" as="geometry" />
        </mxCell>
        <mxCell id="3z_xUzvi2a_4fJgc66t--112" value="v&lt;font size=&quot;1&quot;&gt;&lt;sub&gt;5&lt;/sub&gt;&lt;/font&gt;" style="rounded=0;whiteSpace=wrap;html=1;fontSize=14;" vertex="1" parent="3z_xUzvi2a_4fJgc66t--108">
          <mxGeometry y="40" width="26" height="20" as="geometry" />
        </mxCell>
        <mxCell id="3z_xUzvi2a_4fJgc66t--113" value="v&lt;span style=&quot;font-size: 6.94444px;&quot;&gt;&lt;sub&gt;2&lt;/sub&gt;&lt;/span&gt;" style="rounded=0;whiteSpace=wrap;html=1;fontSize=14;" vertex="1" parent="3z_xUzvi2a_4fJgc66t--108">
          <mxGeometry x="26" y="40" width="30" height="20" as="geometry" />
        </mxCell>
        <mxCell id="3z_xUzvi2a_4fJgc66t--114" value="c" style="rounded=0;whiteSpace=wrap;html=1;fontSize=14;" vertex="1" parent="3z_xUzvi2a_4fJgc66t--108">
          <mxGeometry x="56" y="40" width="40" height="20" as="geometry" />
        </mxCell>
        <mxCell id="3z_xUzvi2a_4fJgc66t--115" value="src" style="rounded=0;whiteSpace=wrap;html=1;fontSize=14;fillColor=#d5e8d4;strokeColor=#000000;gradientColor=none;" vertex="1" parent="3z_xUzvi2a_4fJgc66t--108">
          <mxGeometry width="26" height="20" as="geometry" />
        </mxCell>
        <mxCell id="3z_xUzvi2a_4fJgc66t--116" value="dst" style="rounded=0;whiteSpace=wrap;html=1;fontSize=14;fillColor=#d5e8d4;strokeColor=#000000;" vertex="1" parent="3z_xUzvi2a_4fJgc66t--108">
          <mxGeometry x="26" width="30" height="20" as="geometry" />
        </mxCell>
        <mxCell id="3z_xUzvi2a_4fJgc66t--117" value="label" style="rounded=0;whiteSpace=wrap;html=1;fontSize=14;fillColor=#d5e8d4;strokeColor=#000000;gradientColor=none;" vertex="1" parent="3z_xUzvi2a_4fJgc66t--108">
          <mxGeometry x="56" width="40" height="20" as="geometry" />
        </mxCell>
      </root>
    </mxGraphModel>
  </diagram>
</mxfile>
